<?xml version="1.0" encoding="UTF-8" standalone="no"?><!DOCTYPE svg PUBLIC "-//W3C//DTD SVG 1.1//EN" "http://www.w3.org/Graphics/SVG/1.1/DTD/svg11.dtd"><svg width="100%" height="100%" viewBox="0 0 4167 1250" version="1.1" xmlns="http://www.w3.org/2000/svg" xmlns:xlink="http://www.w3.org/1999/xlink" xml:space="preserve" xmlns:serif="http://www.serif.com/" style="fill-rule:evenodd;clip-rule:evenodd;stroke-linejoin:round;stroke-miterlimit:1.41421;"><g id="Layer-1" serif:id="Layer 1"><g><path d="M273.168,665.277l0.716,8.592c0.717,22.2 17.204,38.704 38.692,38.704c4.312,0 4.312,0 12.904,-0.712l16.488,-0.717c5.012,0 10.741,-2.15 16.47,-5.762c12.892,-8.596 20.788,-21.484 20.788,-35.125c0,-26.496 -23.65,-45.117 -55.179,-45.117c-3.596,0 -5.746,0 -7.159,0.717l-14.341,5.012c-19.355,7.163 -29.38,18.621 -29.38,34.408m-150.504,204.946c-17.904,0 -25.079,-8.591 -25.079,-29.391c0,-3.58 0.717,-7.88 0.717,-15.042c1.446,-15.754 1.446,-27.246 1.446,-34.404l0,-66.634l1.433,-16.475l0.717,-15.787l0.716,-15.038c0.713,-4.3 0.713,-9.341 0.713,-13.641c0,-5.009 0,-8.592 -0.713,-12.175l-3.583,-60.188c-0.729,-5.729 -1.446,-20.8 -1.446,-31.541c0,-8.596 0.717,-15.755 0.717,-20.055l2.162,-21.483c0.717,-5.012 0.717,-10.058 0.717,-14.354c0,-6.446 -0.717,-24.35 -2.879,-73.079l0,-11.492c0,-15.758 4.312,-25.779 12.904,-30.792c5.729,-3.583 7.879,-3.583 38.704,-3.583l3.584,0l22.933,2.15c4.296,0.717 7.875,0.717 12.171,0.717c3.6,0 7.896,0 11.479,-0.717l22.2,-2.15l14.333,0.717l10.763,-0.717c14.32,0 24.35,7.879 26.512,20.05l-0.716,24.383l0,30.08l-1.446,16.504l-0.717,1.433c0,7.158 3.596,12.171 8.608,12.171c3.579,0 9.313,-1.433 16.488,-5.013c5.012,-2.145 8.591,-3.579 12.175,-4.295l10.025,-2.146l15.058,-4.3c1.434,0 6.459,-0.717 14.338,-0.717c3.579,-0.75 6.446,-0.75 8.596,-0.75l1.433,0l18.633,2.9l17.2,0.717l20.054,4.296l11.475,1.433c3.584,0.717 6.446,1.433 10.042,2.862l10.746,5.73c7.158,3.579 10.737,5.729 12.887,6.445l13.625,10.742l18.638,13.642c4.296,2.862 9.308,8.591 14.321,15.037c3.579,5.729 7.179,11.459 10.758,17.904c7.163,12.892 12.171,21.517 13.621,26.53l9.312,27.212l9.309,25.1l2.862,14.321l1.434,14.325l0.716,8.592l-1.433,18.654l-5.729,22.95l-5.009,21.483l-10.745,23.633l-13.638,20.084l-17.187,27.962l-15.759,18.621l-24.379,16.471l-8.592,5.729l-4.295,2.863l-22.217,10.029l-11.479,5.762l-27.229,5.725l-13.609,2.867c-2.862,0 -6.458,0.717 -10.037,0.717l-1.434,0c-5.012,-0.717 -12.175,-0.717 -21.483,-1.434c-12.196,-0.716 -20.071,-1.433 -23.667,-2.15c-20.77,-2.862 -38.687,-10.025 -47.283,-17.937c-8.612,-7.875 -11.475,-10.738 -13.625,-10.738c-2.146,0 -5.008,1.429 -5.008,3.579l-5.013,16.505c-1.433,5.729 -7.183,7.875 -17.921,7.875l-42.287,-1.43l-61.638,2.146Z" style="fill:#fff;fill-rule:nonzero;"/><path d="M763.321,710.427l-2.146,0c-15.042,0 -29.379,12.175 -29.379,25.78c0,15.758 7.891,22.233 24.366,22.233l4.296,0l10.754,-1.463l17.921,-0.716c12.896,0 24.35,-11.459 24.35,-23.634c0,-11.458 -10.741,-20.054 -25.066,-20.766l-12.905,-0.717l-12.191,-0.717Zm-122.525,144.759l-25.817,-15.788l-9.308,-10.029c-9.309,-9.308 -14.338,-14.317 -15.054,-15.75c-1.434,-2.15 -5.013,-9.312 -10.742,-22.233l-5.746,-10.746c-3.583,-8.592 -5.729,-20.05 -5.729,-30.825l0,-10.029c0.712,-9.309 1.429,-15.034 2.146,-17.9c2.15,-8.596 5.733,-18.65 11.479,-31.546c5.725,-12.888 11.471,-22.229 16.487,-29.392c0.717,-0.716 2.863,-3.579 7.875,-8.596c4.296,-5.012 7.875,-8.591 10.025,-10.741c2.867,-2.146 6.45,-5.013 10.759,-7.159c5.729,-3.583 10.025,-5.733 12.891,-5.733l25.084,-7.158l24.383,-7.163l7.875,-1.462l26.513,-2.117l18.637,-0.75l9.308,0.75l17.205,1.4l33.675,6.475l3.583,0c8.608,0 13.621,-2.862 13.621,-8.625c0,-4.3 -2.867,-10.742 -6.463,-13.608c-7.158,-6.442 -18.621,-12.175 -25.066,-12.892l-20.8,-0.717l-16.471,-2.145l-7.163,0l-2.146,0c-15.775,0 -24.383,0.716 -25.812,0.716l-16.475,2.863l-12.888,2.15l-7.179,1.433l-25.083,5.013c-2.146,0.716 -5.008,0.716 -7.158,0.716c-13.625,0 -25.08,-10.746 -25.08,-22.95l-0.716,-36.525l-1.45,-26.529c0,-13.608 7.892,-22.2 24.383,-25.062l14.317,-2.15l16.491,-3.58l6.442,0l16.492,-1.433l35.825,-1.433l11.471,-0.717c3.579,-0.717 7.879,-0.717 12.175,-0.717c4.3,0 8.608,0 11.475,0.717l10.741,0.717l41.571,0.716l14.338,1.434l18.62,2.15l25.08,2.146c10.762,1.433 20.787,4.295 29.379,10.025c2.15,1.433 6.462,4.295 12.908,9.312l17.921,12.204c12.887,8.596 24.35,22.917 33.671,40.821c11.479,20.8 12.908,30.108 12.908,61.654l0,15.038l-2.146,23.633l1.434,44.433l0,5.734c0,6.441 0,15.783 -0.717,28.675c0,25.783 -0.717,43.004 -1.433,52.312c-0.717,9.309 -1.45,19.334 -1.45,22.229c0,2.15 0,3.584 0.733,5.734l2.15,15.037c0.717,3.579 0.717,7.163 0.717,10.746c0,17.217 -10.763,29.392 -27.246,30.825l-20.771,-1.433l-44.433,0l-18.638,0l-22.217,2.146l-1.429,0c-2.866,0 -5.729,-0.713 -7.162,-1.43c-2.867,-1.433 -5.017,-3.579 -6.446,-6.445c-0.717,-1.434 -1.433,-2.896 -1.433,-3.58l0,-11.491c0,-4.296 -2.88,-7.163 -5.73,-7.163c-2.162,0 -4.312,0.717 -6.458,2.15l-17.204,12.171l-6.446,2.867l-8.596,5.046c-4.296,2.15 -12.904,4.295 -25.083,7.162c-16.488,2.863 -28.675,5.013 -35.838,5.013l-4.3,0l-18.633,-2.15l-8.596,0l-15.771,-2.863l-26.512,-9.308l-15.754,-4.3Z" style="fill:#fff;fill-rule:nonzero;"/><path d="M1028.47,683.897l1.434,-15.041l0,-22.234l2.862,-15.75c0.717,-5.016 0,-15.758 -2.146,-32.262c-0.716,-7.875 -0.716,-17.187 -0.716,-27.212l-0.001,-35.125l-0.7,-22.917c0,-27.963 9.309,-37.988 35.109,-37.988l6.446,0l39.404,2.867l11.471,-0.717l22.933,-2.15l9.313,0c14.337,0 27.962,5.013 29.395,10.742l3.58,16.471c1.429,5.046 4.295,7.879 8.591,7.879c0.717,0 1.434,-0.683 2.15,-0.683l15.054,-16.504l10.746,-7.163l22.933,-10.025l7.159,-1.433l18.637,-2.863c2.163,0 5.029,-0.75 8.609,-0.75c10.029,0 24.345,2.15 32.245,3.613c0.713,0.716 6.442,2.15 15.767,5.012c22.917,7.163 25.067,7.879 37.258,17.192l12.909,10.021c4.296,2.9 7.158,4.296 10.741,4.296c2.146,0 2.863,-0.713 3.58,-1.396l27.229,-20.088c2.883,-1.433 5.746,-3.579 9.329,-5.012c12.171,-5.013 17.921,-7.875 18.621,-7.875l9.321,-2.15l10.745,-1.463c2.88,-0.683 5.746,-1.4 7.892,-1.4c0.717,0 8.592,0.717 22.933,0.717c7.163,0.683 10.742,0.683 11.459,0.683c2.866,0.717 10.041,2.179 22.216,5.759c20.067,5.729 31.546,12.174 46.584,25.066l10.758,8.592l8.592,7.912c7.879,6.446 15.771,22.917 22.933,47.984c1.433,4.329 2.15,7.191 2.867,8.625l5.729,14.32c4.296,10.742 6.446,27.246 6.446,49.446c0,5.729 -0.717,11.463 -0.717,17.192l-1.433,15.071c0,8.591 -0.717,16.471 -0.717,25.1c0,7.125 0.717,15.033 0.717,23.629c0.716,13.604 0.716,22.204 0.716,26.5c0.001,4.296 0.001,10.737 -0.716,19.367c-0.717,10.025 -0.717,17.904 -0.717,24.35l0,7.191l4.313,42.254l0,4.296c0,17.221 -7.892,25.096 -24.363,25.096c-3.6,0 -6.446,0 -10.042,-0.717c-11.462,-1.429 -16.487,-2.145 -18.637,-2.145c-1.433,0 -2.863,0.716 -5.013,0.716l-15.041,1.429c-5.742,0.717 -16.488,0 -31.542,-0.716c-5.729,-0.713 -10.742,-0.713 -15.754,-0.713l-3.596,0l-17.204,1.429l-5.013,0c-23.65,0 -31.529,-8.591 -31.529,-36.55c0,-6.45 0,-12.179 0.717,-17.191l1.429,-19.367c0,-3.583 0.717,-7.162 0.717,-10.025c0,-3.583 -0.717,-6.45 -0.717,-9.312l-2.146,-30.825l0,-60.909c0,-7.158 -2.15,-14.321 -6.446,-20.8c-4.295,-4.979 -10.041,-8.591 -15.054,-8.591c-12.891,0 -25.083,15.07 -25.083,30.825l0.717,23.666l0,29.363l-0.717,15.037l-3.579,28.679l0,4.3c0,4.296 0.716,10.771 1.433,17.934c1.429,10.025 2.146,20.05 2.146,27.929c0,25.812 -10.754,35.837 -38.688,35.837c-4.312,0 -8.608,0 -12.904,-0.716l-33.679,-3.579l-7.158,0l-49.463,3.579c-15.041,0 -26.512,-10.738 -26.512,-24.379l0,-19.338l-1.434,-14.321c-0.716,-2.146 -0.716,-4.296 0,-7.879c1.434,-18.65 2.15,-41.567 2.15,-68.812l0,-5.013l-0.716,-13.608c0,-2.867 0,-5.013 0.716,-6.446l0.713,-7.908l0,-4.296c0,-27.934 -10.742,-46.584 -27.229,-46.584c-12.909,0 -21.5,12.888 -21.5,34.409c0,2.862 0,7.875 0.716,15.754c0.717,14.354 0.717,26.529 0.717,37.271l0,5.733c0,6.442 0,12.171 -0.717,15.75c0,1.433 -0.716,7.196 -2.15,17.938c-0.716,5.729 -1.433,11.458 -1.433,15.754c0,2.15 0.717,3.583 0.717,5.762l1.433,13.609c0,42.97 -5.729,54.458 -25.8,54.458l-3.579,0l-27.229,-2.863c-5.013,0 -10.025,-0.716 -15.042,-0.716c-4.312,0 -10.037,0 -15.05,0.716c-25.8,2.146 -42.287,2.863 -48.017,2.863c-22.933,0 -33.675,-8.592 -33.675,-27.963c0,-2.862 0.7,-10.741 1.417,-16.47c0,-7.163 0.729,-13.605 0.729,-15.038l0,-2.183l-1.446,-29.363l-0.7,-80.987l-0.733,-11.459Z" style="fill:#fff;fill-rule:nonzero;"/><path d="M1858.32,665.277l0.717,8.592c0.733,22.2 17.204,38.704 38.704,38.704c4.296,0 4.296,0 12.892,-0.712l16.487,-0.717c5.013,0 10.742,-2.15 16.488,-5.762c12.887,-8.596 20.783,-21.484 20.783,-35.125c0,-26.496 -23.663,-45.117 -55.192,-45.117c-3.579,0 -5.729,0 -7.162,0.717l-14.338,5.012c-19.337,7.163 -29.379,18.621 -29.379,34.408m-150.487,204.946c-17.921,0 -25.084,-8.591 -25.084,-29.391c0,-3.58 0.717,-7.88 0.717,-15.042c1.433,-15.754 1.433,-27.246 1.433,-34.404l0,-66.634l1.429,-16.475l0.717,-15.787l0.717,-15.038c0.716,-4.3 0.716,-9.341 0.716,-13.641c0,-5.009 0,-8.592 -0.716,-12.175l-3.579,-60.188c-0.717,-5.729 -1.434,-20.8 -1.434,-31.541c0,-8.596 0.717,-15.755 0.717,-20.055l2.15,-21.483c0.712,-5.012 0.712,-10.058 0.712,-14.354c0,-6.446 -0.712,-24.35 -2.862,-73.079l0,-11.492c0,-15.758 4.296,-25.779 12.892,-30.792c5.745,-3.583 7.891,-3.583 38.704,-3.583l3.583,0l22.933,2.15c4.313,0.717 7.892,0.717 12.188,0.717c3.579,0 7.879,0 11.458,-0.717l22.217,-2.15l14.337,0.717l10.746,-0.717c14.338,0 24.363,7.879 26.513,20.05l-0.717,24.383l0,30.08l-1.433,16.504l-0.713,1.433c0,7.158 3.596,12.171 8.609,12.171c3.579,0 9.312,-1.433 16.47,-5.013c5.013,-2.145 8.592,-3.579 12.192,-4.295l10.025,-2.146l15.058,-4.3c1.43,0 6.442,-0.717 14.321,-0.717c3.596,-0.75 6.463,-0.75 8.596,-0.75l1.446,0l18.637,2.9l17.184,0.717l20.071,4.296l11.475,1.433c3.579,0.717 6.445,1.433 10.025,2.862l10.762,5.73c7.158,3.579 10.738,5.729 12.888,6.445l13.608,10.742l18.637,13.642c4.296,2.862 9.321,8.591 14.334,15.037c3.583,5.729 7.166,11.459 10.762,17.904c7.159,12.892 12.171,21.517 13.604,26.53l9.313,27.212l9.308,25.1l2.879,14.321l1.434,14.325l0.716,8.592l-1.45,18.654l-5.729,22.95l-5.012,21.483l-10.742,23.633l-13.604,20.084l-17.221,27.962l-15.758,18.621l-24.363,16.471l-8.608,5.729l-4.296,2.863l-22.204,10.029l-11.475,5.762l-27.229,5.725l-13.609,2.867c-2.862,0 -6.458,0.717 -10.041,0.717l-1.429,0c-5.03,-0.717 -12.196,-0.717 -21.505,-1.434c-12.175,-0.716 -20.066,-1.433 -23.645,-2.15c-20.788,-2.862 -38.709,-10.025 -47.3,-17.937c-8.596,-7.875 -11.475,-10.738 -13.625,-10.738c-2.146,0 -5.013,1.429 -5.013,3.579l-5.008,16.505c-1.434,5.729 -7.167,7.875 -17.909,7.875l-42.283,-1.43l-61.637,2.146Z" style="fill:#fff;fill-rule:nonzero;"/><path d="M2362.85,628.004c-3.6,0 -7.179,0 -10.759,1.434c-1.433,0.716 -2.866,1.433 -3.583,1.433c-0.717,0.717 -3.579,2.862 -8.592,5.725l-5.012,3.583c-10.763,7.879 -17.921,21.484 -17.921,33.692c0,6.446 1.433,12.175 4.296,17.904c2.862,5.013 6.446,9.308 10.758,12.888c2.867,2.9 5.729,4.333 7.88,5.05c0.716,0.716 5.724,2.15 14.325,5.012l14.333,4.296l9.312,1.433l10.042,-1.433l12.892,-2.15c6.446,-0.713 12.904,-3.579 20.071,-8.625c12.187,-9.308 20.066,-22.2 20.066,-33.658c0,-5.73 -2.15,-12.925 -5.733,-19.371c-2.863,-4.296 -5.008,-7.159 -7.875,-9.309c-3.596,-2.862 -3.596,-2.862 -10.758,-6.445l-13.621,-8.592c-1.434,-0.717 -4.296,-2.15 -8.596,-2.867c-3.583,-0.716 -5.729,-1.429 -7.163,-1.429l-0.716,0l-7.875,1.429l-15.771,0Zm-217.142,66.638c0,-2.15 -0.716,-6.446 -0.716,-11.463l-0.717,-12.887l0,-2.867c0,-14.354 1.433,-19.367 7.883,-41.567c8.592,-29.396 10.738,-36.558 15.767,-43.716l12.175,-16.509l12.908,-20.766c2.15,-2.15 7.879,-8.592 19.334,-18.621l8.612,-8.592c7.879,-6.446 14.338,-11.492 20.071,-14.358l35.821,-16.467c17.204,-7.883 23.65,-10.029 38.687,-11.462l25.1,-3.58c15.754,-2.145 25.796,-2.862 30.092,-2.862l12.908,0c14.325,0 22.917,0.717 26.496,1.4l32.263,7.192l31.541,5.729c19.338,3.583 53.025,25.783 71.646,47.3c7.163,7.875 11.458,12.887 12.192,13.604l15.037,15.758l12.192,19.367l5.012,13.604c0,0.717 2.15,4.3 4.296,9.313c8.596,15.787 15.775,48.012 15.775,72.395c0,15.755 -1.433,27.963 -4.312,37.275l-5.729,19.334l-3.584,12.891c0,1.43 -2.15,5.726 -5.729,12.892c-2.867,6.442 -4.296,10.054 -5.012,10.054l-13.625,21.488c-16.467,23.662 -19.35,27.241 -26.513,32.258l-18.621,12.175c-2.879,2.146 -6.458,5.013 -10.041,8.592c-5.013,4.3 -8.609,7.162 -10.025,8.596c-3.6,2.862 -8.613,5.758 -14.338,8.591c-7.162,3.613 -10.746,5.046 -12.179,5.763l-19.35,4.3l-12.904,4.296l-10.029,1.429l-17.917,2.866l-17.921,0.717l-14.325,0l-18.637,-0.717l-18.634,0c-0.716,0 -4.3,0 -9.312,-0.716l-12.904,-1.434l-12.909,-2.145l-10.025,0l-11.458,-2.867l-18.638,-9.313l-29.375,-12.92l-22.933,-16.471l-6.446,-7.159l-9.329,-9.312c-2.146,-2.15 -5.012,-5.729 -9.308,-10.058c-5.013,-5.73 -9.313,-10.03 -11.459,-12.175c-14.337,-13.605 -27.962,-38.705 -30.825,-57.325l-2.866,-17.188l-7.163,-23.662Z" style="fill:#fff;fill-rule:nonzero;"/><path d="M2838.68,628.004c-3.583,0 -7.163,0 -10.742,1.434c-1.433,0.716 -2.883,1.433 -3.583,1.433c-0.717,0.717 -3.596,2.862 -8.608,5.725l-5.013,3.583c-10.762,7.879 -17.921,21.484 -17.921,33.692c0,6.446 1.434,12.175 4.296,17.904c2.863,5.013 6.446,9.308 10.758,12.888c2.867,2.9 5.73,4.333 7.88,5.05c0.716,0.716 5.725,2.15 14.337,5.012l14.321,4.296l9.312,1.433l10.042,-1.433l12.908,-2.15c6.446,-0.713 12.888,-3.579 20.055,-8.625c12.187,-9.308 20.066,-22.2 20.066,-33.658c0,-5.73 -2.15,-12.925 -5.733,-19.371c-2.863,-4.296 -5.008,-7.159 -7.875,-9.309c-3.596,-2.862 -3.596,-2.862 -10.758,-6.445l-13.605,-8.592c-1.433,-0.717 -4.295,-2.15 -8.595,-2.867c-3.6,-0.716 -5.746,-1.429 -7.18,-1.429l-0.716,0l-7.875,1.429l-15.771,0Zm-217.142,66.638c0,-2.15 -0.716,-6.446 -0.716,-11.463l-0.717,-12.887l0,-2.867c0,-14.354 1.433,-19.367 7.883,-41.567c8.609,-29.396 10.754,-36.558 15.767,-43.716l12.175,-16.509l12.908,-20.766c2.15,-2.15 7.879,-8.592 19.35,-18.621l8.596,-8.592c7.879,-6.446 14.338,-11.492 20.071,-14.358l35.821,-16.467c17.204,-7.883 23.65,-10.029 38.704,-11.462l25.083,-3.58c15.771,-2.145 25.796,-2.862 30.092,-2.862l12.908,0c14.325,0 22.934,0.717 26.513,1.4l32.246,7.192l31.541,5.729c19.338,3.583 53.025,25.783 71.663,47.3c7.162,7.875 11.458,12.887 12.175,13.604l15.037,15.758l12.192,19.367l5.029,13.604c0,0.717 2.146,4.3 4.296,9.313c8.596,15.787 15.758,48.012 15.758,72.395c0,15.755 -1.433,27.963 -4.3,37.275l-5.725,19.334l-3.583,12.891c0,1.43 -2.15,5.726 -5.746,12.892c-2.867,6.442 -4.296,10.054 -5.012,10.054l-13.625,21.488c-16.467,23.662 -19.334,27.241 -26.496,32.258l-18.638,12.175c-2.879,2.146 -6.458,5.013 -10.041,8.592c-5.013,4.3 -8.592,7.162 -10.025,8.596c-3.584,2.862 -8.596,5.758 -14.338,8.591c-7.162,3.613 -10.746,5.046 -12.179,5.763l-19.35,4.3l-12.888,4.296l-10.045,1.429l-17.917,2.866l-17.904,0.717l-14.342,0l-18.637,-0.717l-18.617,0c-0.717,0 -4.317,0 -9.329,-0.716l-12.904,-1.434l-12.892,-2.145l-10.025,0l-11.475,-2.867l-18.638,-9.313l-29.375,-12.92l-22.933,-16.471l-6.446,-7.159l-9.312,-9.312c-2.163,-2.15 -5.013,-5.729 -9.325,-10.058c-5.013,-5.73 -9.313,-10.03 -11.459,-12.175c-14.337,-13.605 -27.945,-38.705 -30.808,-57.325l-2.867,-17.188l-7.179,-23.662Z" style="fill:#fff;fill-rule:nonzero;"/><path d="M3128.91,867.361c-19.371,0 -31.542,-10.025 -31.542,-27.246l0,-1.433l0.717,-5.73l-0.717,-60.904c0,-9.312 12.888,-28.679 27.246,-40.137l10.742,-8.592l10.742,-11.458l31.541,-42.288l11.463,-14.354c5.725,-5.729 8.591,-12.892 8.591,-17.904c0,-5.729 -4.295,-10.029 -10.741,-10.029c-2.15,0 -6.45,0 -12.175,0.716c-0.717,0 -10.059,-0.716 -30.113,-2.862l-3.579,0l-2.867,0l-11.458,0.717l-1.429,0c-13.642,0 -18.654,-11.459 -18.654,-46.584l0,-5.729l0.716,-35.841l0,-22.917c0,-22.946 12.209,-36.55 32.259,-36.55c2.866,0 5.729,0.712 9.312,0.712c30.109,2.867 40.85,4.3 44.434,4.3c1.429,0 3.579,-0.716 5.725,-0.716l27.245,-2.867c6.45,-0.717 13.609,-0.717 22.2,-0.717c8.596,0 17.905,0 29.4,0.717l40.134,2.15l15.037,0l21.488,-2.15l13.608,0l15.783,-0.717c11.463,0 17.188,9.309 17.188,29.363l0,3.612c0,5.013 -0.713,10.03 -0.713,15.042c0,5.729 0.713,11.454 0.713,17.188l0,40.85c0,4.299 -2.146,10.745 -4.296,14.325l-15.754,20.083l-21.517,33.658l-14.321,17.938l-13.608,20.766c-7.162,10.779 -8.592,15.788 -8.592,19.371c0,5.725 4.296,9.308 10.021,9.308l0.717,0l10.746,-0.716l11.454,0c4.3,0 10.779,-0.717 18.654,-1.433c5.729,-1.434 10.025,-1.434 13.608,-1.434c3.58,0 7.875,0.717 10.742,2.15c2.863,2.15 5.729,4.3 7.908,7.879c1.4,2.867 2.867,5.73 2.867,7.88l-1.467,35.124l-0.716,11.455l0.716,15.758l1.467,17.937l0,8.592c0,27.213 -10.775,44.433 -27.25,44.433c-2.146,0 -7.158,0 -15.75,-0.716l-7.912,0l-7.163,0l-12.175,0.716c-3.579,0.717 -10.025,0.717 -17.183,0.717c-12.209,0 -22.95,-0.717 -30.113,-1.433c-12.891,-0.717 -20.804,-1.434 -23.666,-1.434l-22.917,0.717l-80.271,0l-36.525,0.717Z" style="fill:#fff;fill-rule:nonzero;"/><path d="M3618.37,703.234c0,4.296 0,17.938 -1.433,40.854l0,14.321c0,7.908 0.683,14.354 0.683,20.083l5.046,34.409l0,10.025c0,34.375 -10.058,45.15 -45.15,45.15l-6.475,0c-10.029,-0.717 -18.62,-0.717 -24.35,-0.717l-6.446,0c-2.15,0 -15.754,0.717 -40.137,2.15l-10.742,0c-33.691,0 -48.729,-14.354 -48.729,-47.3l0,-7.158c0.713,-12.209 0.713,-20.088 0.713,-23.667l2.866,-47.296c0.717,-4.3 0.717,-10.029 0.717,-17.191c0,-6.442 0,-13.604 -0.717,-22.2c-0.716,-23.667 -0.716,-39.421 -0.716,-48.046l0,-5.013l1.433,-30.795c0.712,-3.58 0.712,-7.875 0.712,-11.459c0,-2.896 0,-7.191 -0.712,-11.491l-1.433,-31.542l0,-10.742l0,-14.321c0.716,-33.695 1.433,-55.895 1.433,-68.066c0,-7.913 -0.717,-14.359 -0.717,-20.088c-2.15,-17.904 -2.866,-27.929 -2.866,-30.791c0,-7.196 2.15,-14.359 6.445,-21.517c5.017,-8.596 15.042,-15.042 22.2,-15.042l34.409,0c0.716,0 6.446,0 17.221,-0.716l7.879,0c4.296,0 7.875,0 11.458,0.716c9.308,0.717 15.754,0.717 17.183,0.717l8.6,-0.717c0.713,0 2.863,0 5.759,-0.716c9.308,-0.713 15.041,-0.713 18.621,-0.713c16.47,0 27.962,12.888 27.962,32.254c0,2.15 -0.717,12.179 -1.467,29.367c-0.683,4.296 -0.683,18.617 -0.683,32.971c0,12.896 0,21.487 0.683,25.066l1.467,26.53l-2.896,58.041c-0.687,2.863 0,18.621 1.429,47.3c0.75,4.296 0.75,7.159 0.75,10.025l0,6.446l-2.179,19.371l2.179,31.508Z" style="fill:#fff;fill-rule:nonzero;"/><path d="M3838.35,585.004c-14.325,0.717 -25.096,7.875 -25.096,18.621c0,2.862 1.463,5.758 3.579,7.908c3.613,4.296 10.059,6.446 14.359,6.446l24.346,-0.717l5.729,0c0.716,0 3.579,0 8.591,-0.716c2.15,0 4.3,-0.717 6.48,-0.717c2.15,0 4.3,0 6.445,0.717c6.446,0.716 11.459,0.716 12.892,0.716c3.579,0 7.163,-0.716 10.742,-2.866c4.296,-2.863 7.875,-7.159 7.875,-10.054c0,-12.18 -18.617,-20.771 -43,-20.771l-5.729,0l-7.159,0.716l-20.054,0.717Zm-104.625,244.367c-10.737,-6.442 -22.95,-17.904 -35.121,-33.659c-30.829,-38.733 -47.296,-77.408 -47.296,-109.666l-0.716,-15.754l0,-7.913l0.716,-15.754l5.725,-21.483l2.867,-15.759c0.717,-5.041 2.146,-10.054 3.579,-13.637l10.029,-23.634c3.58,-8.625 6.442,-13.637 8.592,-15.787l12.925,-15.754l12.171,-14.325l35.842,-26.529l23.633,-10.025l17.937,-8.596c12.171,-6.446 43.717,-10.742 70.213,-10.742c7.879,0 15.754,0 22.95,1.4l17.904,2.183l23.633,2.863l20.8,5.729l15.038,2.867c3.579,1.433 11.462,5.012 22.95,12.171l25.062,15.758c1.434,0.75 6.45,5.763 17.221,15.788c7.163,7.879 11.463,12.174 12.896,13.604c0.713,1.433 5.725,7.879 12.888,20.054c4.295,6.475 7.162,11.491 7.879,12.925c0.716,2.146 2.862,8.591 5.729,20.767l4.296,18.649l2.146,23.634l2.866,17.187l0,6.446c0,30.113 -10.741,47.3 -29.362,47.3l-54.459,1.467l-32.262,2.146l-7.875,0c-4.296,0 -12.175,-0.717 -22.917,-1.429c-6.446,-0.717 -12.208,-1.434 -17.221,-1.434c-2.145,0 -4.295,0 -7.158,0.717l-6.45,0.716l-19.367,0c-9.308,-0.716 -17.9,-0.716 -24.35,-0.716c-15.754,0 -25.066,5.012 -25.066,14.321c0,12.891 21.487,22.2 52.283,22.2l17.933,0l20.767,2.862l68.817,0l11.458,-0.717l25.813,-6.441c1.433,-0.717 3.583,-0.717 5.012,-0.717c12.896,0 22.917,8.592 22.917,20.083c0,3.58 -0.713,7.875 -1.429,13.609c0,7.162 -0.717,15.754 -0.717,25.812c0,6.446 0,10.742 0.717,13.604l1.429,12.896l0,7.159c0,25.812 -15.75,35.125 -64.484,37.275l-25.1,1.429l-28.641,0.716l-19.371,1.434c-2.863,0 -5.729,0.716 -9.308,0.716c-13.609,0 -23.663,-1.433 -31.546,-2.866l-11.454,-2.146l-13.609,-1.433l-23.633,-6.446l-15.788,-3.613l-12.891,-3.55l-15.071,-5.046l-20.771,-10.024l-7.158,-3.584l-6.446,-4.296l-8.596,-5.012Z" style="fill:#fff;fill-rule:nonzero;"/><path d="M2783.7,702.421l-258.787,243.487l300.425,-218.262l99.137,209.408l-23.083,-225.291l380.067,176.725l-360.679,-243.75l173.812,-251.496l-200.883,189.254l5.975,-152.504l-55.484,153.254l-130.225,-285.904l75.455,313.966l-256.217,-101.433l239.55,147.133l-144.367,51.171l155.304,-5.758Z" style="fill:#1d1d1b;fill-rule:nonzero;"/></g></g></svg>